<svg xmlns="http://www.w3.org/2000/svg" width="349" height="75" viewBox="0 0 349 75">
  <g id="Group_1517" data-name="Group 1517" transform="translate(10061 -2348)">
    <g id="Top_logo" data-name="Top logo" transform="translate(-10207 2321)">
      <text id="Yourworktime" transform="translate(208 81)" fill="#fff" font-size="67" font-family="Gabriola"><tspan x="0" y="0">Yourworktime</tspan></text>
      <g id="V4-merge-fullwhite_1_" data-name="V4-merge-fullwhite (1)" transform="translate(52.98 -60.55)">
        <g id="Layer_6" transform="translate(93.02 102.872)">
          <g id="Group_63" data-name="Group 63" transform="translate(0)">
            <path id="Path_96" data-name="Path 96" d="M429.337,261.753a30.12,30.12,0,0,0-5.577-9.693l-5.14,5.14a22.852,22.852,0,0,1,3.669,6.442Z" transform="translate(-370.68 -243.159)" fill="#fff"/>
            <path id="Path_97" data-name="Path 97" d="M174.38,191.61a30.116,30.116,0,0,0-9.76,5.605l5.128,5.128a22.8,22.8,0,0,1,6.5-3.746Z" transform="translate(-154.078 -191.61)" fill="#fff"/>
            <path id="Path_98" data-name="Path 98" d="M450.98,356.679l7.1,1.9a30.324,30.324,0,0,0,0-11.172l-7.07,1.895a23.053,23.053,0,0,1,.278,3.573A22.782,22.782,0,0,1,450.98,356.679Z" transform="translate(-398.275 -324.47)" fill="#fff"/>
            <path id="Path_99" data-name="Path 99" d="M365.067,197.729a30.115,30.115,0,0,0-9.684-5.639l-1.873,6.992a22.844,22.844,0,0,1,6.43,3.774Z" transform="translate(-315.156 -192.019)" fill="#fff"/>
            <path id="Path_100" data-name="Path 100" d="M110.342,251.22a30.145,30.145,0,0,0-5.632,9.674l7.051,1.889a22.848,22.848,0,0,1,3.716-6.427Z" transform="translate(-102.989 -242.443)" fill="#fff"/>
            <path id="Path_101" data-name="Path 101" d="M355.036,515.475a30.13,30.13,0,0,0,9.676-5.63l-5.245-5.245a22.818,22.818,0,0,1-6.358,3.688Z" transform="translate(-314.815 -458.516)" fill="#fff"/>
            <path id="Path_102" data-name="Path 102" d="M423.144,451.432a30.11,30.11,0,0,0,5.58-9.684L421.6,439.84a22.852,22.852,0,0,1-3.693,6.358Z" transform="translate(-370.074 -403.291)" fill="#fff"/>
            <path id="Path_103" data-name="Path 103" d="M164.68,510.517a30.131,30.131,0,0,0,9.757,5.6l1.924-7.181a22.853,22.853,0,0,1-6.436-3.666Z" transform="translate(-154.129 -459.087)" fill="#fff"/>
            <path id="Path_104" data-name="Path 104" d="M104.56,442.11a30.141,30.141,0,0,0,5.661,9.749l5.234-5.234a22.821,22.821,0,0,1-3.772-6.424Z" transform="translate(-102.861 -403.598)" fill="#fff"/>
            <path id="Path_105" data-name="Path 105" d="M100.631,348.293,93.565,346.4a30.335,30.335,0,0,0-.013,11.377l7.1-1.9a23.073,23.073,0,0,1-.024-7.581Z" transform="translate(-93.02 -323.609)" fill="#fff"/>
            <path id="Path_106" data-name="Path 106" d="M262.417,537.684l-1.927,7.191a30.347,30.347,0,0,0,11.222-.04l-1.926-7.185a22.937,22.937,0,0,1-7.369.034Z" transform="translate(-235.832 -486.7)" fill="#fff"/>
          </g>
        </g>
        <g id="guides" transform="translate(116.844 87.55)">
          <circle id="Ellipse_6" data-name="Ellipse 6" cx="6.303" cy="6.303" r="6.303" transform="translate(0)" fill="#fff"/>
        </g>
        <g id="Layer_2" transform="translate(94.62 101.156)">
          <path id="Path_107" data-name="Path 107" d="M153.842,217.968s-.119.443-.225.723c-.168.445-.283.692-.5,1.169l-.368.745-.3.549-14.457-11.09,2.652-21.323c.56.221,1.023.409,1.687.729s1.35.689,1.935,1.048a22.623,22.623,0,0,1,2.239,1.545c.356.271.586.471.586.471l5.249-5.237c-.532-.459-.966-.813-1.35-1.116-.281-.224-.6-.451-1.067-.8a25.757,25.757,0,0,0-2.737-1.729c-.283-.156-.453-.259-1.041-.555-.2-.1-1.09-.543-1.886-.882-.574-.244-1.143-.458-1.238-.493-.764-.283-1.634-.565-2.672-.864-.72-.208-1.773-.43-2.278-.53-.872-.174-2.45-.372-2.45-.372l-2.559,2.865.034.162,2.929,14.715-3.459,4.329-3.459-4.329,2.929-14.715.034-.162-2.559-2.865s-1.578.2-2.45.372c-.505.1-1.558.322-2.278.53-1.038.3-1.908.582-2.672.864-.1.035-.664.249-1.238.493-.8.337-1.686.78-1.886.882-.587.294-.76.4-1.041.555a25.376,25.376,0,0,0-2.737,1.729c-.471.343-.786.571-1.067.8-.384.3-.819.657-1.35,1.116l5.249,5.237s.23-.2.586-.471a22.041,22.041,0,0,1,2.239-1.545c.585-.361,1.268-.726,1.935-1.048s1.128-.509,1.687-.729l2.652,21.323-14.457,11.09-.3-.549-.368-.745c-.221-.477-.336-.726-.5-1.169-.106-.28-.225-.723-.225-.723l-7.4,2.136c.029.068.3.942.951,2.428a23.663,23.663,0,0,0,1.7,3.35,36.3,36.3,0,0,0,3.061,4.142l22.968-15.88,22.968,15.88a36.3,36.3,0,0,0,3.061-4.142,23.742,23.742,0,0,0,1.7-3.35c.652-1.486.922-2.359.951-2.428Z" transform="translate(-103.89 -179.96)" fill="#fff"/>
        </g>
      </g>
    </g>
  </g>
</svg>
