<svg xmlns="http://www.w3.org/2000/svg" width="255" height="55.3" viewBox="0 0 255 55.3">
  <g id="Group_1517" data-name="Group 1517" transform="translate(10061 -2348)">
    <g id="Top_logo" data-name="Top logo" transform="translate(-10061 2348)">
      <text id="Yourworktime" transform="translate(45 39.3)" fill="#fff" font-size="49" font-family="Gabriola"><tspan x="0" y="0">Yourworktime</tspan></text>
      <g id="V4-merge-fullwhite_1_" data-name="V4-merge-fullwhite (1)" transform="translate(0 0)">
        <g id="Layer_6" transform="translate(0 11.297)">
          <g id="Group_63" data-name="Group 63" transform="translate(0)">
            <path id="Path_96" data-name="Path 96" d="M426.522,259.207a22.209,22.209,0,0,0-4.112-7.147l-3.79,3.79a16.848,16.848,0,0,1,2.705,4.75Z" transform="translate(-383.273 -245.497)" fill="#fff"/>
            <path id="Path_97" data-name="Path 97" d="M171.816,191.61a22.206,22.206,0,0,0-7.2,4.133l3.781,3.781a16.81,16.81,0,0,1,4.793-2.762Z" transform="translate(-156.847 -191.61)" fill="#fff"/>
            <path id="Path_98" data-name="Path 98" d="M450.98,354.244l5.235,1.4a22.358,22.358,0,0,0,0-8.237L451,348.8a16.991,16.991,0,0,1,.205,2.634,16.8,16.8,0,0,1-.227,2.8Z" transform="translate(-412.119 -330.495)" fill="#fff"/>
            <path id="Path_99" data-name="Path 99" d="M362.031,196.248a22.2,22.2,0,0,0-7.14-4.158l-1.381,5.155a16.843,16.843,0,0,1,4.741,2.783Z" transform="translate(-325.231 -192.038)" fill="#fff"/>
            <path id="Path_100" data-name="Path 100" d="M108.863,251.22a22.227,22.227,0,0,0-4.153,7.133l5.2,1.393a16.847,16.847,0,0,1,2.74-4.739Z" transform="translate(-103.441 -244.748)" fill="#fff"/>
            <path id="Path_101" data-name="Path 101" d="M354.53,512.618a22.214,22.214,0,0,0,7.134-4.151L357.8,504.6a16.825,16.825,0,0,1-4.688,2.719Z" transform="translate(-324.874 -470.621)" fill="#fff"/>
            <path id="Path_102" data-name="Path 102" d="M421.768,448.387a22.2,22.2,0,0,0,4.114-7.14l-5.253-1.407a16.849,16.849,0,0,1-2.723,4.688Z" transform="translate(-382.639 -412.891)" fill="#fff"/>
            <path id="Path_103" data-name="Path 103" d="M164.68,509.139a22.215,22.215,0,0,0,7.194,4.129l1.419-5.295a16.849,16.849,0,0,1-4.745-2.7Z" transform="translate(-156.901 -471.218)" fill="#fff"/>
            <path id="Path_104" data-name="Path 104" d="M104.56,441.609a22.224,22.224,0,0,0,4.174,7.188l3.859-3.859a16.826,16.826,0,0,1-2.781-4.737Z" transform="translate(-103.308 -413.212)" fill="#fff"/>
            <path id="Path_105" data-name="Path 105" d="M98.632,347.8l-5.21-1.4a22.367,22.367,0,0,0-.01,8.389l5.235-1.4a17.013,17.013,0,0,1-.018-5.59Z" transform="translate(-93.02 -329.595)" fill="#fff"/>
            <path id="Path_106" data-name="Path 106" d="M261.911,537.675l-1.421,5.3a22.375,22.375,0,0,0,8.274-.029l-1.42-5.3A16.912,16.912,0,0,1,261.911,537.675Z" transform="translate(-242.309 -500.083)" fill="#fff"/>
          </g>
        </g>
        <g id="guides" transform="translate(17.566 0)">
          <circle id="Ellipse_6" data-name="Ellipse 6" cx="4.647" cy="4.647" r="4.647" transform="translate(0 0)" fill="#fff"/>
        </g>
        <g id="Layer_2" transform="translate(1.179 10.029)">
          <path id="Path_107" data-name="Path 107" d="M140.721,207.983s-.088.327-.166.533c-.124.328-.209.51-.369.862l-.271.549-.221.4-10.66-8.177,1.955-15.722c.413.163.754.3,1.244.538s1,.508,1.427.773a16.679,16.679,0,0,1,1.651,1.139c.262.2.432.347.432.347l3.87-3.861c-.392-.338-.712-.6-1-.823-.207-.165-.442-.333-.787-.59a18.988,18.988,0,0,0-2.018-1.275c-.209-.115-.334-.191-.768-.409-.147-.074-.8-.4-1.391-.65-.423-.18-.843-.338-.913-.363-.563-.209-1.2-.417-1.97-.637-.531-.153-1.307-.317-1.68-.391-.643-.128-1.806-.274-1.806-.274l-1.887,2.112.025.119,2.16,10.85-2.55,3.192-2.55-3.192,2.16-10.85.025-.119-1.887-2.112s-1.164.147-1.806.274c-.372.074-1.149.237-1.68.391-.765.221-1.407.429-1.97.637-.074.026-.49.184-.913.363-.59.248-1.243.575-1.391.65-.433.217-.56.295-.768.409a18.708,18.708,0,0,0-2.018,1.275c-.347.253-.58.421-.787.59-.283.221-.6.484-1,.823l3.87,3.861s.17-.147.432-.347a16.252,16.252,0,0,1,1.651-1.139c.431-.266.935-.535,1.427-.773s.832-.375,1.244-.538l1.955,15.722-10.66,8.177-.221-.4-.271-.549c-.163-.352-.248-.535-.369-.862-.078-.206-.166-.533-.166-.533l-5.456,1.575c.021.05.221.695.7,1.79a17.448,17.448,0,0,0,1.253,2.47,26.765,26.765,0,0,0,2.257,3.054l16.935-11.709,16.935,11.709a26.762,26.762,0,0,0,2.257-3.054,17.507,17.507,0,0,0,1.253-2.47c.481-1.1.68-1.739.7-1.79Z" transform="translate(-103.89 -179.956)" fill="#fff"/>
        </g>
      </g>
    </g>
  </g>
</svg>
